<mxfile host="Electron" modified="2023-05-10T15:12:23.727Z" agent="Mozilla/5.0 (Macintosh; Intel Mac OS X 10_15_7) AppleWebKit/537.36 (KHTML, like Gecko) draw.io/21.2.8 Chrome/112.0.5615.165 Electron/24.2.0 Safari/537.36" etag="9vJ_ZkLW9Hba5YoafcbD" version="21.2.8" type="device">
  <diagram id="HnTVqRqvhCg-h0KhDhEI" name="Page-1">
    <mxGraphModel dx="1979" dy="1898" grid="1" gridSize="10" guides="1" tooltips="1" connect="1" arrows="1" fold="1" page="1" pageScale="1" pageWidth="850" pageHeight="1100" math="0" shadow="0">
      <root>
        <mxCell id="0" />
        <mxCell id="1" parent="0" />
        <UserObject label="" lucidchartObjectId="AGREf-g0b-5E" id="3">
          <mxCell style="html=1;overflow=block;blockSpacing=1;whiteSpace=wrap;whiteSpace=wrap;fontSize=13;spacing=0;strokeColor=#0e76d4;strokeOpacity=100;fillOpacity=100;rounded=1;absoluteArcSize=1;arcSize=9;fillColor=#edf5ff;dashed=1;fixDash=1;dashPattern=1 2;strokeWidth=2.3;" parent="1" vertex="1">
            <mxGeometry x="30" y="-130" width="890" height="900" as="geometry" />
          </mxCell>
        </UserObject>
        <UserObject label="" lucidchartObjectId="AGRE5bbgmy7V" id="2">
          <mxCell style="html=1;overflow=block;blockSpacing=1;whiteSpace=wrap;whiteSpace=wrap;fontSize=13;spacing=0;strokeColor=#0e76d4;strokeOpacity=100;fillOpacity=0;rounded=1;absoluteArcSize=1;arcSize=6;fillColor=#ffffff;strokeWidth=2.3;" parent="1" vertex="1">
            <mxGeometry x="-330" y="-178" width="1840" height="1033" as="geometry" />
          </mxCell>
        </UserObject>
        <mxCell id="4" value="" style="group;html=1;" parent="1" vertex="1">
          <mxGeometry x="165" y="-82" width="94" height="70" as="geometry" />
        </mxCell>
        <mxCell id="5" value="" style="shape=stencil(lZDRDoIwDEW/pq/LsrLoO+J/kDBY49zImKJ/70Y1EowPvN3enjbtBawn244GlJxSDBczU5cs4AmUIm9NpJQVYANY9yGaIYab77ge20IWdQ33suHBc5UWxzKk5JMNpUW1GGfGHfkVjvLd/eCIQu/A5X/255KDwB309u4svj/35BxHtu5vM8oW54vNCw==);whiteSpace=wrap;fontSize=13;strokeOpacity=0;fillOpacity=100;fillColor=#804998;strokeWidth=20.4;whiteSpace=wrap;spacing=0;" parent="4" vertex="1">
          <mxGeometry width="94" height="70" relative="1" as="geometry" />
        </mxCell>
        <mxCell id="6" value="" style="shape=stencil(lZXdDoIwDIWfZrfLaIHBtT/vQSLKIoJB/Ht7wRmVLh7D3QbfutOeblO8OFXFsVRkTn3X7sur2/SV4qUick1Vdq4fRopXihfbtit3XXtuNn5+LEZyHB3ayxjh5tdF+biEzN1PU50952vP1q75zQ5wAuBMxxIngNvXzm880TnESeJ2Bm51OkOL1TwjUaQDVnvqDJGICzMMaLLISopeBfjCQUXISHeQFCN9R0KMqAhoqUAF7KggRdhQ/6otvElFbIY5SppymGYircyg8jjEkZUc4tEMPIG01BJD5TLRGJ2zfzUXDk07xcATLCPjuyRwEx+dqRBmaD1UPQw+1/jW1bV/Bb7/y2t/+OSfDF49AA==);whiteSpace=wrap;fontSize=13;strokeOpacity=0;fillOpacity=100;fillColor=#804998;strokeWidth=20.4;whiteSpace=wrap;spacing=0;" parent="4" vertex="1">
          <mxGeometry width="94" height="70" relative="1" as="geometry" />
        </mxCell>
        <mxCell id="7" value="" style="shape=stencil(lZBNEsIgDIVPky2DiUX3td6jM6XCiNCh+NPbF8zCWsdFdy8vXzLJA6pH0w4aUI4phqt+2i4ZoBMgWm90tCkroAao7kPUlxjuvuN6aAtZ1C08yoYXzx13QpUhlBMbWIn92zgz7qxf4EoJ/MKJRLUBl//Zn0sOgjbQ67uz+PzcW+c4smV/nVG2OF9qZg==);whiteSpace=wrap;fontSize=13;strokeOpacity=0;fillOpacity=100;fillColor=#804998;strokeWidth=20.4;whiteSpace=wrap;spacing=0;" parent="4" vertex="1">
          <mxGeometry width="94" height="70" relative="1" as="geometry" />
        </mxCell>
        <mxCell id="8" value="" style="shape=stencil(lZXBboMwEES/xleLeLGBc5L+B1KgWCUQEdI2fx8jI7UZS0Nys+F5md3ZxUr2166+NMpk13kav5off5o7JQdljB+6ZvJzWCk5Ktm349R8TuNtOMX9pV7IZXUev5cIv/GczXW5HDLZPT5w6/4j0r0fGB1wS3GDuCG4aPeMW10xHOHiZbhYv/SajkLLG0kyFRvVBm9KiMwzRDrIZlYWOkec1cShN0yKTduESUGcNxUq4T2FafKW2qj4sz/OQGxhWSa0qViabod2lky5y1Kc2Vml+O4N3DI60ZJT5ZhozqZtq+bgkEBnZXSSMTaft8RPOkCJFBFq/4bysPj7pbe+7+ON8P89XgHhUbw+5PgA);whiteSpace=wrap;fontSize=13;strokeOpacity=0;fillOpacity=100;fillColor=#804998;strokeWidth=20.4;whiteSpace=wrap;spacing=0;" parent="4" vertex="1">
          <mxGeometry width="94" height="70" relative="1" as="geometry" />
        </mxCell>
        <mxCell id="9" value="" style="shape=stencil(lZDRDoIwDEW/pq/LWAHlGfE/SBhucW5kDJW/Z7MmIsZE325vT5v2AtajagcJgo/Bu7O86S4owAMIoa2SXoeoABvAundenrybbEf10CYyqYu7pg13mssLtk9Dgs9kVBmrHsaRcKPtCkfO8jc84/wPuixZ8R3/uGWHT+M3fHt6FK+3e20Mpbbub2OKFkWMzQI=);whiteSpace=wrap;fontSize=13;strokeOpacity=0;fillOpacity=100;fillColor=#804998;strokeWidth=20.4;whiteSpace=wrap;spacing=0;" parent="4" vertex="1">
          <mxGeometry width="94" height="70" relative="1" as="geometry" />
        </mxCell>
        <mxCell id="10" value="" style="shape=stencil(lZXBksIgEES/hisFA4Fwdt3/sMpoKLOJFePu+veS5bBmKFtzg+RB9XQPIMzm0u7OjSB1mcbh1PzE/dQK8yGIYt82Y5zSSJitMJvDMDbHcbj2+zw/72ZyHn0N3/MOv3mdDvMSUrc89UbS34fPDHexfw4HA9Ba2iVM0gPcy5rjFuLEcaSb495KvUJMcqVeUWrCq7dN5I4v4yHie8NCCzxYCUIiLR3HgS+keEiwUFIcRsoVc2WFDA9bqyjSw9Z66TgLyPHdFXSc46GSAeAVz7OC2m2JozxN2S1uBe41xLmYhCPtvFSv0KF76TuLadkxzsEDXeyNb5ciU3yKllK0Um+zXHYa/N/rh9h1+Vl4/M/fgfQpvyFmewc=);whiteSpace=wrap;fontSize=13;strokeOpacity=0;fillOpacity=100;fillColor=#804998;strokeWidth=20.4;whiteSpace=wrap;spacing=0;" parent="4" vertex="1">
          <mxGeometry width="94" height="70" relative="1" as="geometry" />
        </mxCell>
        <mxCell id="11" value="" style="shape=stencil(lZBNEoMgDIVPky0DZEp1be09nBELUwoO0h9vLzSLWjtduHt5+ZJJHmAzmW7UIPmUYrjqp+2TATyBlNYbHW3KCrAFbIYQ9SWGu++pHrtCFnULj7LhRXOVYKoMST6TUQtWv40z4c76Fa4Uk1+44HwHnY3Df/znliOyage+PT2Lz9uDdY5SW/e3MWWLIsZ2AQ==);whiteSpace=wrap;fontSize=13;strokeOpacity=0;fillOpacity=100;fillColor=#804998;strokeWidth=20.4;whiteSpace=wrap;spacing=0;" parent="4" vertex="1">
          <mxGeometry width="94" height="70" relative="1" as="geometry" />
        </mxCell>
        <mxCell id="12" value="" style="shape=stencil(lZXRjsIgEEW/hldCmQLl2dX/MLFaYrc1teru3y9dTLRDcg1vlJ6SO/fOFEGba7e/tEKr6zyN5/YRDnMn6EtoHYauncIcV4K2gjbHcWpP03gbDun5sl/IZfU93pcTftJ3ppbN8pFWv2nDkdT/G7uE92FAuCcI6zWspQM4ScvxGuEcRrrXsKtlVSAketIUlBlxU2Ahd5wF1PDTcaEc97VEEbmnxW84csbyiHCpJusWqJ3jDinnUhxuLl6ow831yfV1SFbz0xVyPcO9kR7gFc/UIO1W5TjK1OcdYwtwVyE8ExNxpJ2XGo0Eo/fRdxYTsQazFg52djoevSxVOEuZmEqpAppLj4vXP/4Y+j5dEe/v+Z0Qt9J9Qts/);whiteSpace=wrap;fontSize=13;strokeOpacity=0;fillOpacity=100;fillColor=#804998;strokeWidth=20.4;whiteSpace=wrap;spacing=0;" parent="4" vertex="1">
          <mxGeometry width="94" height="70" relative="1" as="geometry" />
        </mxCell>
        <mxCell id="13" value="" style="shape=stencil(lZDdDsIgDIWfpreEUEbm9ZzvsWRMiAgLw7+3H6waF40a705PvzbtAWwm040aBJ9SDAd9sX0ygFsQwnqjo01ZAbaAzRCi3sdw8j3VY1fIoo7hXDZcaU5JVpchwW9kVDVTi7Ej3Fm/wuXm3n3gSrHqDxyRic/42zGSf9v+8/Ysnn8P1jmKbd1/zSlblDG2Mw==);whiteSpace=wrap;fontSize=13;strokeOpacity=0;fillOpacity=100;fillColor=#804998;strokeWidth=20.4;whiteSpace=wrap;spacing=0;" parent="4" vertex="1">
          <mxGeometry width="94" height="70" relative="1" as="geometry" />
        </mxCell>
        <mxCell id="14" value="" style="shape=stencil(lZXRboMwDEW/Jq9RsENonrvuPyqVjmgMKkq39e8bFrStznYpbwmcWNfXjqN4e272p1qROY9D/1p/hMPYKH5SRKFr6iGMcaV4p3h77If6Zegv3SHtT/uJnFZv/fsU4TOd4810hMx13npdfX14TnAbuv/h0usSwJW2EieAOy2ib7SHOEncrcCtgdqlmIjzilStedhE6fh9eWwhIjN0JcNdoQuAm9mzb9zMef+t3AtXHHbFC/hhdKELpQyGfZglybAPFx0XBSpldKA8gx2hRK2V1SSonPPio16hHLcr8OgLwqWYiKNOlKnGKwWu84LrokTVPcpwDGWR8VzJKgrnipDi3ApY6o6Ln6F+DG2b3oTf/+UjED+lB4R3Nw==);whiteSpace=wrap;fontSize=13;strokeOpacity=0;fillOpacity=100;fillColor=#804998;strokeWidth=20.4;whiteSpace=wrap;spacing=0;" parent="4" vertex="1">
          <mxGeometry width="94" height="70" relative="1" as="geometry" />
        </mxCell>
        <mxCell id="15" value="" style="shape=stencil(jZDdDsIgDIWfprcE243o9ZzvsWRMiAgLw7+3F6yJ8yfq3enha2kPUDOZbtSAckox7PTJ9skArQHReqOjTVkBtUDNEKLexnDwPddjV8ii9uFYJpy5D1cCSxPKCxv1UqibsWHcWT/DF9UTrJSo/4aJ7l99hN8WqeS32T/3zuJx82Cd48jm768ZZYvzpfYK);whiteSpace=wrap;fontSize=13;strokeOpacity=0;fillOpacity=100;fillColor=#804998;strokeWidth=20.4;whiteSpace=wrap;spacing=0;" parent="4" vertex="1">
          <mxGeometry width="94" height="70" relative="1" as="geometry" />
        </mxCell>
        <mxCell id="16" value="" style="shape=stencil(lZXNboMwEISfxlfL9hoD5zR9j0ghxSqFiNC/t6+pK7WeNFN6s81nNDs7LEp2l/5w7pQzl2WeHrvXeFx6JXfKuTj23RyXtFKyV7I7TXP3ME/P4zHvz4eVXFdP08v6hrd8z2m/3nHmPe+l1fXnwX2mhzgSump1dZu2ukHaMdqVdKPb27TRAemwnfaG63ZIy/YqvdnuH7pd9qaCNwt1BOlgtSV0yZqvy7+yHvwI1A+BGgPxA1mePtQhNH0VsiR7fzld9sWaEiaSAQ2O1ddgBx3TXF/3m6QjXNN+O538IDQqSTRJHlYpNftyqdfQFotpEuafQc1sfmD+2fRAGSH8C0fVafE9vE9xGPLs//kch306yj8K2X8A);whiteSpace=wrap;fontSize=13;strokeOpacity=0;fillOpacity=100;fillColor=#804998;strokeWidth=20.4;whiteSpace=wrap;spacing=0;" parent="4" vertex="1">
          <mxGeometry width="94" height="70" relative="1" as="geometry" />
        </mxCell>
        <mxCell id="17" value="" style="shape=stencil(lZDRDsIgDEW/pq8E6UZ4n/M/lowNIsLCcOrfC+uDc4ka327b0+b2Ajaz6SYNgs8phrO+2T4ZwCMIYb3R0aasAFvAZghRjzFcfU/11BWyqEtYyoU77R04LzuCP6iuFZNr40S0s35Dq4qpN1xKVv+BIzLxGd97qfi347+cZ/F6erDOUWbb+T6k3KKAsX0C);whiteSpace=wrap;fontSize=13;strokeOpacity=0;fillOpacity=100;fillColor=#804998;strokeWidth=20.4;whiteSpace=wrap;spacing=0;" parent="4" vertex="1">
          <mxGeometry width="94" height="70" relative="1" as="geometry" />
        </mxCell>
        <mxCell id="18" value="" style="shape=stencil(lZDRDoIwDEW/pq/LsrLoO+J/kDBY49zImKJ/70Y1EowPvN3enjbtBawn244GlJxSDBczU5cs4AmUIm9NpJQVYANY9yGaIYab77ge20IWdQ33suHBc5UWxzKk5JMNpUW1GGfGHfkVjvLd/eCIQu/A5X/255KDwB309u4svj/35BxHtu5vM8oW54vNCw==);whiteSpace=wrap;fontSize=13;strokeOpacity=0;fillOpacity=20;strokeWidth=20.4;whiteSpace=wrap;spacing=0;" parent="4" vertex="1">
          <mxGeometry width="94" height="70" relative="1" as="geometry" />
        </mxCell>
        <mxCell id="19" value="" style="shape=stencil(lZBNEsIgDIVPky2DiUX3td6jM6XCiNCh+NPbF8zCWsdFdy8vXzLJA6pH0w4aUI4phqt+2i4ZoBMgWm90tCkroAao7kPUlxjuvuN6aAtZ1C08yoYXzx13QpUhlBMbWIn92zgz7qxf4EoJ/MKJRLUBl//Zn0sOgjbQ67uz+PzcW+c4smV/nVG2OF9qZg==);whiteSpace=wrap;fontSize=13;strokeOpacity=0;fillOpacity=20;strokeWidth=20.4;whiteSpace=wrap;spacing=0;" parent="4" vertex="1">
          <mxGeometry width="94" height="70" relative="1" as="geometry" />
        </mxCell>
        <mxCell id="20" value="" style="shape=stencil(lZDRDoIwDEW/pq/LWAHlGfE/SBhucW5kDJW/Z7MmIsZE325vT5v2AtajagcJgo/Bu7O86S4owAMIoa2SXoeoABvAundenrybbEf10CYyqYu7pg13mssLtk9Dgs9kVBmrHsaRcKPtCkfO8jc84/wPuixZ8R3/uGWHT+M3fHt6FK+3e20Mpbbub2OKFkWMzQI=);whiteSpace=wrap;fontSize=13;strokeOpacity=0;fillOpacity=20;strokeWidth=20.4;whiteSpace=wrap;spacing=0;" parent="4" vertex="1">
          <mxGeometry width="94" height="70" relative="1" as="geometry" />
        </mxCell>
        <mxCell id="21" value="" style="shape=stencil(lZBNEoMgDIVPky0DZEp1be09nBELUwoO0h9vLzSLWjtduHt5+ZJJHmAzmW7UIPmUYrjqp+2TATyBlNYbHW3KCrAFbIYQ9SWGu++pHrtCFnULj7LhRXOVYKoMST6TUQtWv40z4c76Fa4Uk1+44HwHnY3Df/znliOyage+PT2Lz9uDdY5SW/e3MWWLIsZ2AQ==);whiteSpace=wrap;fontSize=13;strokeOpacity=0;fillOpacity=20;strokeWidth=20.4;whiteSpace=wrap;spacing=0;" parent="4" vertex="1">
          <mxGeometry width="94" height="70" relative="1" as="geometry" />
        </mxCell>
        <mxCell id="22" value="" style="shape=stencil(lZDdDsIgDIWfpreEUEbm9ZzvsWRMiAgLw7+3H6waF40a705PvzbtAWwm040aBJ9SDAd9sX0ygFsQwnqjo01ZAbaAzRCi3sdw8j3VY1fIoo7hXDZcaU5JVpchwW9kVDVTi7Ej3Fm/wuXm3n3gSrHqDxyRic/42zGSf9v+8/Ysnn8P1jmKbd1/zSlblDG2Mw==);whiteSpace=wrap;fontSize=13;strokeOpacity=0;fillOpacity=20;strokeWidth=20.4;whiteSpace=wrap;spacing=0;" parent="4" vertex="1">
          <mxGeometry width="94" height="70" relative="1" as="geometry" />
        </mxCell>
        <mxCell id="23" value="" style="shape=stencil(jZDdDsIgDIWfprcE243o9ZzvsWRMiAgLw7+3F6yJ8yfq3enha2kPUDOZbtSAckox7PTJ9skArQHReqOjTVkBtUDNEKLexnDwPddjV8ii9uFYJpy5D1cCSxPKCxv1UqibsWHcWT/DF9UTrJSo/4aJ7l99hN8WqeS32T/3zuJx82Cd48jm768ZZYvzpfYK);whiteSpace=wrap;fontSize=13;strokeOpacity=0;fillOpacity=20;strokeWidth=20.4;whiteSpace=wrap;spacing=0;" parent="4" vertex="1">
          <mxGeometry width="94" height="70" relative="1" as="geometry" />
        </mxCell>
        <mxCell id="24" value="" style="shape=stencil(lZDRDsIgDEW/pq8E6UZ4n/M/lowNIsLCcOrfC+uDc4ka327b0+b2Ajaz6SYNgs8phrO+2T4ZwCMIYb3R0aasAFvAZghRjzFcfU/11BWyqEtYyoU77R04LzuCP6iuFZNr40S0s35Dq4qpN1xKVv+BIzLxGd97qfi347+cZ/F6erDOUWbb+T6k3KKAsX0C);whiteSpace=wrap;fontSize=13;strokeOpacity=0;fillOpacity=20;strokeWidth=20.4;whiteSpace=wrap;spacing=0;" parent="4" vertex="1">
          <mxGeometry width="94" height="70" relative="1" as="geometry" />
        </mxCell>
        <mxCell id="25" value="" style="shape=stencil(lZXBboMwEES/xlfLeMHAOU3/I1JIsUohIrRN/r6mrtQyVgf5ZtbPq92ZxVZyuPWna6esuS3z9Np9+vPSK3lS1vqx72a/hJWSo5LDZZq7l3l6H8/x+3payXX1Nn2sGe7xXC3aroesecSAtLr+DjxHfPAjw6tWVwS32iFuGb6FG90SuNAl4i4DLw2vHGHJaLM0GRKi4mCQg9zCVUHcFbogeKWbLW5+Av/gCDNVSmjUMVUQ3pnDCmHmJTYpfAr3FN8a1BjMTupOYGdpmy26aWnlTWo+m5U6xcsMPOjCcCwm4GwSsVWp2e+8ozpYZHG4hMqY5OY3S+IpvVmSYpzLwrH2sPi93C9+GOLb8HcfH4MQig+JHL8A);whiteSpace=wrap;fontSize=13;strokeOpacity=0;fillOpacity=100;fillColor=#804998;strokeWidth=20.4;whiteSpace=wrap;spacing=0;" parent="4" vertex="1">
          <mxGeometry width="94" height="70" relative="1" as="geometry" />
        </mxCell>
        <mxCell id="32" value="" style="group;html=1;" parent="1" vertex="1">
          <mxGeometry x="-490" y="299" width="55" height="48" as="geometry" />
        </mxCell>
        <mxCell id="33" value="" style="shape=stencil(nZLBEoIgEIafhiuDu1ZytnoPJzGZTBzUsrdPWhyF8dRt999v2R9YhnlfF51iIPrBmod663KoGZ4ZgG5rZfUwRwwvDPPKWHW3ZmxLyrvCkS56mpc7YaI+4TpAfCiTB57+hCuxt9ESnIS0T+WJS1ImICXhmUcWQfieCUlIfR3Duh/Y6HZjTh4DdxEbm5MZh9DfOjx2s9jb3ABjBPffJLS44pQD+hfYpf9nYxdzsH5ppZuGNmJbj1dglmh98PIF);whiteSpace=wrap;fontSize=13;strokeOpacity=0;fillOpacity=100;fillColor=#59b4d9;strokeWidth=2.7;whiteSpace=wrap;spacing=0;rounded=1;absoluteArcSize=1;arcSize=0.4;" parent="32" vertex="1">
          <mxGeometry width="55" height="48" relative="1" as="geometry" />
        </mxCell>
        <mxCell id="34" value="" style="shape=stencil(pZJNEoMgDIVPw9YJwXF0be09nIqVqRUHf6q3rzSMFaur7vLIl5BHYCLtqryVDKHrjX7Ilyr6iokLQ1RNJY3ql4iJjIm01EbejR6agnSbW9JGTz3aDhPVJZEtQZhJwkddiaxVsyHDc/A2GOrJKcmD2MF8S8OEnpydRJcVftbJMIjOhwJvKIzdxYcsh3/o3Rg/llec+6acxyQO0HcNvut1EeLggZfgu8BS1TXtf5vfL3w5os8isjc=);whiteSpace=wrap;fontSize=13;strokeOpacity=0;fillOpacity=100;fillColor=#a0a1a2;strokeWidth=2.7;whiteSpace=wrap;spacing=0;rounded=1;absoluteArcSize=1;arcSize=0.4;" parent="32" vertex="1">
          <mxGeometry width="55" height="48" relative="1" as="geometry" />
        </mxCell>
        <mxCell id="35" value="" style="shape=stencil(hZLRDoIwDEW/Zq/L6IawZ8T/IDJkERkZoPD3gltkNYpvve3tdtKW8Kyvi04RYP1gzVU9dDnUhB8JgG5rZfWwRITnhGeVsepizdiWTnfF6lyjm7mvL0yuT6wdwGan2EudnPE8WueMXDGiqTdHoZtNgOTsJfgqx1UvBT2EfzW6DaAYgpJA5R4Xw1QypgKDbeA+IRMaYzqB6d6Gr3gpxVP7404o/B4y9u5sYwm2HVa6adwJhPXPnS8pdy88fwI=);whiteSpace=wrap;fontSize=13;strokeOpacity=0;fillOpacity=20;strokeWidth=2.7;whiteSpace=wrap;spacing=0;rounded=1;absoluteArcSize=1;arcSize=0.4;" parent="32" vertex="1">
          <mxGeometry width="55" height="48" relative="1" as="geometry" />
        </mxCell>
        <mxCell id="36" value="" style="shape=stencil(UzV2Ls5ILEhVNTIoLinKz04tz0wpyVA1dlE1MsrMy0gtyiwBslSNXVWNndPyi1LTi/JL81Ig/IJEkEoQKze/DGRCBUSfkameBUiTkUElRMDQUs8SLOAGUZ6TmYek3NJYz4gi5Ya4FWM6hSTFaA4BMhB+TsvMyYEEGbI8ehgBhSDha+wKAA==);whiteSpace=wrap;fontSize=13;strokeOpacity=0;fillOpacity=100;strokeWidth=2.7;whiteSpace=wrap;spacing=0;rounded=1;absoluteArcSize=1;arcSize=0.4;" parent="32" vertex="1">
          <mxGeometry width="55" height="48" relative="1" as="geometry" />
        </mxCell>
        <mxCell id="37" value="" style="shape=stencil(hZJNEoMgDIVPw5aRRK1dW3sPp2JlasVBbe3tKwX/cJjuwuNLXgIhmHZV3nICQdcr+eBvUfQVwQsBEE3FleiniGBGMC2l4nclh6Yw5zbXpI6e8qUrjCYPgMY6CYKPEVhE8SdcDX4blOHZIWFWGI2MMoKtkVCwjFUgXhi0DNDEMugwHucTDR3j2DVGx5W5rri3/Dcs7g3PlO391pasEC6Ed8wZ8Vhu3o65NeHwBeA2hgfEM+oUrDtRiro2K7W9d3doksz+YfYF);whiteSpace=wrap;fontSize=13;strokeOpacity=0;fillOpacity=100;fillColor=#59b4d9;strokeWidth=2.7;whiteSpace=wrap;spacing=0;rounded=1;absoluteArcSize=1;arcSize=0.4;" parent="32" vertex="1">
          <mxGeometry width="55" height="48" relative="1" as="geometry" />
        </mxCell>
        <mxCell id="38" value="" style="shape=stencil(nZLdDsIgDIWfhlsyykS9nvM9lowJEWFhzJ+3F1ITJ4nEeXfafj1p0kN4M6lulASqKXh3ljfdB0X4gQBoq6TXISrCW8KbwXl58m62PdZjl8ikLu6aHO64xwSFtATVAxuA5RFho+0S5nT3M/xJsg0VK4z3lBXo/OYyzTJvVtP6Ow7wOvRfXNDtmmPKePk7Ubz/OmhjMBbLeZ6D2MIM8fYJ);whiteSpace=wrap;fontSize=13;strokeOpacity=0;fillOpacity=100;strokeWidth=2.7;whiteSpace=wrap;spacing=0;rounded=1;absoluteArcSize=1;arcSize=0.4;" parent="32" vertex="1">
          <mxGeometry width="55" height="48" relative="1" as="geometry" />
        </mxCell>
        <UserObject label="" lucidchartObjectId="AGREmG3oChFg" id="40">
          <mxCell style="html=1;jettySize=18;whiteSpace=wrap;fontSize=13;strokeColor=#0078d7;strokeWidth=1.3;rounded=1;arcSize=1.66;edgeStyle=orthogonalEdgeStyle;startArrow=block;startFill=1;;endArrow=none;;exitX=0;exitY=0.5;exitPerimeter=0;entryX=1;entryY=0.544;entryPerimeter=0;" parent="1" source="52" target="32" edge="1">
            <mxGeometry width="100" height="100" relative="1" as="geometry">
              <Array as="points" />
            </mxGeometry>
          </mxCell>
        </UserObject>
        <mxCell id="41" value="" style="group;html=1;" parent="1" vertex="1">
          <mxGeometry x="-526.5" y="351" width="128" height="24" as="geometry" />
        </mxCell>
        <mxCell id="42" value="" style="shape=stencil(nZBRDoQgDERP03+WHsHFe5iISyOCQdT19kIaIxq//Jtp3zTpAFaTaUYNUkwx+F6v1EYD+AUpyRkdKCYFqACrzgf9C352LfuxyWRWg1/yhT/nRE5IsZWuZtCSK8CPeI0e/hF+jV7AJM4PO7KWCyr390bSiNtEtQM=);whiteSpace=wrap;overflow=block;blockSpacing=1;html=1;fontSize=13;strokeOpacity=0;fillOpacity=0;fillColor=#000000;strokeWidth=1.3;whiteSpace=wrap;fontSize=13;spacing=0;" parent="41" vertex="1">
          <mxGeometry width="128" height="24" relative="1" as="geometry" />
        </mxCell>
        <mxCell id="43" value="Client" style="strokeColor=none;fillColor=none;overflow=visible;whiteSpace=wrap;fontSize=13.3;fontFamily=Source Sans Pro;fontColor=#000000;align=center;whiteSpace=wrap;spacing=0;strokeOpacity=0;fillOpacity=0;strokeWidth=1.3;whiteSpace=wrap;" parent="41" vertex="1">
          <mxGeometry x="0.052" y="0.276" width="114.56" height="10.752" relative="1" as="geometry" />
        </mxCell>
        <mxCell id="47" value="" style="group;html=1;" parent="1" vertex="1">
          <mxGeometry x="248" y="-69" width="150" height="42" as="geometry" />
        </mxCell>
        <mxCell id="48" value="" style="shape=stencil(nZBRDoQgDERP03+WHsHFe5iISyOCQdT19kIaIxq//Jtp3zTpAFaTaUYNUkwx+F6v1EYD+AUpyRkdKCYFqACrzgf9C352LfuxyWRWg1/yhT/nRE5IsZWuZtCSK8CPeI0e/hF+jV7AJM4PO7KWCyr390bSiNtEtQM=);whiteSpace=wrap;fontSize=13;strokeOpacity=0;fillOpacity=0;fillColor=#000000;strokeWidth=1.3;whiteSpace=wrap;spacing=0;" parent="47" vertex="1">
          <mxGeometry width="150" height="42" relative="1" as="geometry" />
        </mxCell>
        <mxCell id="49" value="Azure Kubernetes Service (AKS)" style="strokeColor=none;fillColor=none;overflow=visible;whiteSpace=wrap;fontSize=15;fontFamily=Source Sans Pro;fontColor=#0078d7;align=center;whiteSpace=wrap;spacing=0;strokeOpacity=0;fillOpacity=0;strokeWidth=1.3;whiteSpace=wrap;" parent="47" vertex="1">
          <mxGeometry x="0.044" y="0.16" width="136.65" height="28.602000000000004" relative="1" as="geometry" />
        </mxCell>
        <mxCell id="50" value="" style="group;html=1;" parent="1" vertex="1">
          <mxGeometry x="-244" y="442" width="120" height="33" as="geometry" />
        </mxCell>
        <mxCell id="51" value="" style="shape=stencil(nZBLDoAgDERP0z3SIyjew0SURgSD+Lu9kMZoXLhwN9O+tukAlrNpJg1SzDH4QW/URgNYgZTkjA4UkwJUgGXng+6DX1zLfmoymdXo17xh5zmRJ6Q42BWCfc2oJfdAr+Yv+AP9Cb7OJ3H/2JG1HNGz/84klThPVCc=);whiteSpace=wrap;fontSize=13;strokeOpacity=0;fillOpacity=0;fillColor=#000000;strokeWidth=1.3;whiteSpace=wrap;spacing=0;" parent="50" vertex="1">
          <mxGeometry width="120" height="33" relative="1" as="geometry" />
        </mxCell>
        <UserObject label="Application Gateway" lucidchartObjectId="AGREGJpWabfb" id="52">
          <mxCell style="html=1;overflow=block;blockSpacing=1;whiteSpace=wrap;aspect=fixed;html=1;points=[];align=center;verticalAlign=top;image;image=img/lib/mscae/Application_Gateway.svg;whiteSpace=wrap;fontSize=13;spacing=0;strokeColor=#5e5e5e;strokeOpacity=100;rounded=1;absoluteArcSize=1;arcSize=9;fillColor=#7FBA00;strokeWidth=2.3;" parent="1" vertex="1">
            <mxGeometry x="-291" y="291" width="77" height="68" as="geometry" />
          </mxCell>
        </UserObject>
        <mxCell id="57" value="" style="group;html=1;strokeWidth=0;" parent="1" vertex="1">
          <mxGeometry x="100" y="30" width="530" height="230" as="geometry" />
        </mxCell>
        <mxCell id="gVri99b_Ql9N_bP9wiT3-298" value="" style="rounded=0;whiteSpace=wrap;html=1;fillColor=#fff2cc;strokeColor=#d6b656;" vertex="1" parent="57">
          <mxGeometry x="-17" y="-20" width="547" height="250" as="geometry" />
        </mxCell>
        <mxCell id="58" value="" style="shape=stencil(nZBLDoAgDERP0z3SIyjew0SURgSD+Lu9kMZoXLhwN9O+tukAlrNpJg1SzDH4QW/URgNYgZTkjA4UkwJUgGXng+6DX1zLfmoymdXo17xh5zmRJ6Q42BWCfc2oJfdAr+Yv+AP9Cb7OJ3H/2JG1HNGz/84klThPVCc=);whiteSpace=wrap;fontSize=13;strokeColor=default;fillOpacity=0;fillColor=#000000;strokeWidth=0.8;whiteSpace=wrap;align=left;spacing=0;verticalAlign=bottom;rounded=1;absoluteArcSize=1;arcSize=0.8;" parent="57" vertex="1">
          <mxGeometry width="494" height="197" relative="1" as="geometry" />
        </mxCell>
        <UserObject label="frontend-gateway" lucidchartObjectId="ue8EUXnXCax." id="240">
          <mxCell style="html=1;overflow=block;blockSpacing=1;whiteSpace=wrap;;whiteSpace=wrap;fontSize=12;fontColor=#3a414a;spacing=3.8;strokeOpacity=0;fillOpacity=0;rounded=1;absoluteArcSize=1;arcSize=9;fillColor=#ffffff;strokeWidth=0.8;" parent="57" vertex="1">
            <mxGeometry x="104" y="124" width="68" height="33" as="geometry" />
          </mxCell>
        </UserObject>
        <mxCell id="gVri99b_Ql9N_bP9wiT3-290" value="" style="sketch=0;html=1;dashed=0;whitespace=wrap;fillColor=#2875E2;strokeColor=#ffffff;points=[[0.005,0.63,0],[0.1,0.2,0],[0.9,0.2,0],[0.5,0,0],[0.995,0.63,0],[0.72,0.99,0],[0.5,1,0],[0.28,0.99,0]];verticalLabelPosition=bottom;align=center;verticalAlign=top;shape=mxgraph.kubernetes.icon;prIcon=pod" vertex="1" parent="57">
          <mxGeometry x="111" y="76" width="50" height="48" as="geometry" />
        </mxCell>
        <mxCell id="gVri99b_Ql9N_bP9wiT3-291" value="" style="sketch=0;html=1;dashed=0;whitespace=wrap;fillColor=#2875E2;strokeColor=#ffffff;points=[[0.005,0.63,0],[0.1,0.2,0],[0.9,0.2,0],[0.5,0,0],[0.995,0.63,0],[0.72,0.99,0],[0.5,1,0],[0.28,0.99,0]];verticalLabelPosition=bottom;align=center;verticalAlign=top;shape=mxgraph.kubernetes.icon;prIcon=pod" vertex="1" parent="57">
          <mxGeometry x="235" y="76" width="50" height="48" as="geometry" />
        </mxCell>
        <mxCell id="gVri99b_Ql9N_bP9wiT3-292" value="" style="sketch=0;html=1;dashed=0;whitespace=wrap;fillColor=#2875E2;strokeColor=#ffffff;points=[[0.005,0.63,0],[0.1,0.2,0],[0.9,0.2,0],[0.5,0,0],[0.995,0.63,0],[0.72,0.99,0],[0.5,1,0],[0.28,0.99,0]];verticalLabelPosition=bottom;align=center;verticalAlign=top;shape=mxgraph.kubernetes.icon;prIcon=pod" vertex="1" parent="57">
          <mxGeometry x="235" y="20" width="50" height="48" as="geometry" />
        </mxCell>
        <mxCell id="gVri99b_Ql9N_bP9wiT3-293" value="cc backend services" style="sketch=0;html=1;dashed=0;whitespace=wrap;fillColor=#2875E2;strokeColor=#ffffff;points=[[0.005,0.63,0],[0.1,0.2,0],[0.9,0.2,0],[0.5,0,0],[0.995,0.63,0],[0.72,0.99,0],[0.5,1,0],[0.28,0.99,0]];verticalLabelPosition=bottom;align=center;verticalAlign=top;shape=mxgraph.kubernetes.icon;prIcon=pod" vertex="1" parent="57">
          <mxGeometry x="235" y="130" width="50" height="48" as="geometry" />
        </mxCell>
        <UserObject label="" lucidchartObjectId="AGREzNCWMy9Q" id="gVri99b_Ql9N_bP9wiT3-300">
          <mxCell style="html=1;jettySize=18;whiteSpace=wrap;fontSize=13;strokeColor=#0078d7;strokeWidth=1.3;rounded=1;arcSize=1.66;edgeStyle=orthogonalEdgeStyle;startArrow=block;startFill=1;;endArrow=none;;exitX=0.005;exitY=0.63;entryX=0.995;entryY=0.63;entryPerimeter=0;entryDx=0;entryDy=0;exitDx=0;exitDy=0;exitPerimeter=0;" edge="1" parent="57">
            <mxGeometry width="100" height="100" relative="1" as="geometry">
              <Array as="points">
                <mxPoint x="185" y="102" />
                <mxPoint x="185" y="102" />
              </Array>
              <mxPoint x="235.25" y="102.24000000000001" as="sourcePoint" />
              <mxPoint x="160.75" y="102.24000000000001" as="targetPoint" />
            </mxGeometry>
          </mxCell>
        </UserObject>
        <UserObject label="" lucidchartObjectId="AGREzNCWMy9Q" id="gVri99b_Ql9N_bP9wiT3-303">
          <mxCell style="html=1;jettySize=18;whiteSpace=wrap;fontSize=13;strokeColor=#0078d7;strokeWidth=1.3;rounded=1;arcSize=1.66;edgeStyle=orthogonalEdgeStyle;startArrow=block;startFill=1;;endArrow=none;;exitX=0.005;exitY=0.63;exitDx=0;exitDy=0;exitPerimeter=0;" edge="1" parent="57" source="gVri99b_Ql9N_bP9wiT3-293">
            <mxGeometry width="100" height="100" relative="1" as="geometry">
              <Array as="points" />
              <mxPoint x="245.25" y="112.24000000000001" as="sourcePoint" />
              <mxPoint x="195" y="100" as="targetPoint" />
            </mxGeometry>
          </mxCell>
        </UserObject>
        <mxCell id="gVri99b_Ql9N_bP9wiT3-316" value="Team Namespace" style="sketch=0;html=1;dashed=0;whitespace=wrap;fillColor=#2875E2;strokeColor=#ffffff;points=[[0.005,0.63,0],[0.1,0.2,0],[0.9,0.2,0],[0.5,0,0],[0.995,0.63,0],[0.72,0.99,0],[0.5,1,0],[0.28,0.99,0]];verticalLabelPosition=bottom;align=center;verticalAlign=top;shape=mxgraph.kubernetes.icon;prIcon=ns" vertex="1" parent="57">
          <mxGeometry x="29" y="3" width="50" height="48" as="geometry" />
        </mxCell>
        <UserObject label="" lucidchartObjectId="AGREzNCWMy9Q" id="39">
          <mxCell style="html=1;jettySize=18;whiteSpace=wrap;fontSize=13;strokeColor=#0078d7;strokeWidth=1.3;rounded=1;arcSize=1.66;edgeStyle=orthogonalEdgeStyle;startArrow=block;startFill=1;;endArrow=none;;exitX=0.005;exitY=0.63;entryX=0.511;entryY=-0.02;entryPerimeter=0;entryDx=0;entryDy=0;exitDx=0;exitDy=0;exitPerimeter=0;" parent="1" source="gVri99b_Ql9N_bP9wiT3-290" edge="1">
            <mxGeometry width="100" height="100" relative="1" as="geometry">
              <Array as="points" />
              <mxPoint x="111.59999999999991" y="131.29649999999992" as="sourcePoint" />
              <mxPoint x="-250.65300000000025" y="289.6399999999999" as="targetPoint" />
            </mxGeometry>
          </mxCell>
        </UserObject>
        <mxCell id="gVri99b_Ql9N_bP9wiT3-296" value="http listener &amp;lt;team&amp;gt;.dev.dlcm.vwgroup.com" style="edgeLabel;html=1;align=center;verticalAlign=middle;resizable=0;points=[];" vertex="1" connectable="0" parent="39">
          <mxGeometry x="-0.2446" y="-4" relative="1" as="geometry">
            <mxPoint x="-91" y="-8" as="offset" />
          </mxGeometry>
        </mxCell>
        <UserObject label="" lucidchartObjectId="AGREzNCWMy9Q" id="gVri99b_Ql9N_bP9wiT3-304">
          <mxCell style="html=1;jettySize=18;whiteSpace=wrap;fontSize=13;strokeColor=#0078d7;strokeWidth=1.3;rounded=1;arcSize=1.66;edgeStyle=orthogonalEdgeStyle;startArrow=block;startFill=1;;endArrow=none;;exitX=0.005;exitY=0.63;exitDx=0;exitDy=0;exitPerimeter=0;" edge="1" parent="1" source="gVri99b_Ql9N_bP9wiT3-292">
            <mxGeometry width="100" height="100" relative="1" as="geometry">
              <Array as="points" />
              <mxPoint x="345" y="200" as="sourcePoint" />
              <mxPoint x="295" y="130" as="targetPoint" />
            </mxGeometry>
          </mxCell>
        </UserObject>
        <mxCell id="gVri99b_Ql9N_bP9wiT3-308" value="Dev resource groups" style="outlineConnect=0;dashed=0;verticalLabelPosition=bottom;verticalAlign=top;align=center;html=1;shape=mxgraph.aws3.resources;fillColor=#759C3E;gradientColor=none;" vertex="1" parent="1">
          <mxGeometry x="-300" y="-148.5" width="67.5" height="79.5" as="geometry" />
        </mxCell>
        <mxCell id="gVri99b_Ql9N_bP9wiT3-329" value="" style="group;html=1;strokeWidth=0;" vertex="1" parent="1">
          <mxGeometry x="100" y="300" width="530" height="230" as="geometry" />
        </mxCell>
        <mxCell id="gVri99b_Ql9N_bP9wiT3-330" value="" style="rounded=0;whiteSpace=wrap;html=1;fillColor=#e1d5e7;strokeColor=#9673a6;" vertex="1" parent="gVri99b_Ql9N_bP9wiT3-329">
          <mxGeometry x="-17" y="-20" width="547" height="250" as="geometry" />
        </mxCell>
        <mxCell id="gVri99b_Ql9N_bP9wiT3-331" value="" style="shape=stencil(nZBLDoAgDERP0z3SIyjew0SURgSD+Lu9kMZoXLhwN9O+tukAlrNpJg1SzDH4QW/URgNYgZTkjA4UkwJUgGXng+6DX1zLfmoymdXo17xh5zmRJ6Q42BWCfc2oJfdAr+Yv+AP9Cb7OJ3H/2JG1HNGz/84klThPVCc=);whiteSpace=wrap;fontSize=13;strokeColor=default;fillOpacity=0;fillColor=#000000;strokeWidth=0.8;whiteSpace=wrap;align=left;spacing=0;verticalAlign=bottom;rounded=1;absoluteArcSize=1;arcSize=0.8;" vertex="1" parent="gVri99b_Ql9N_bP9wiT3-329">
          <mxGeometry width="494" height="197" relative="1" as="geometry" />
        </mxCell>
        <UserObject label="frontend-gateway" lucidchartObjectId="ue8EUXnXCax." id="gVri99b_Ql9N_bP9wiT3-332">
          <mxCell style="html=1;overflow=block;blockSpacing=1;whiteSpace=wrap;;whiteSpace=wrap;fontSize=12;fontColor=#3a414a;spacing=3.8;strokeOpacity=0;fillOpacity=0;rounded=1;absoluteArcSize=1;arcSize=9;fillColor=#ffffff;strokeWidth=0.8;" vertex="1" parent="gVri99b_Ql9N_bP9wiT3-329">
            <mxGeometry x="104" y="124" width="68" height="33" as="geometry" />
          </mxCell>
        </UserObject>
        <mxCell id="gVri99b_Ql9N_bP9wiT3-333" value="" style="sketch=0;html=1;dashed=0;whitespace=wrap;fillColor=#2875E2;strokeColor=#ffffff;points=[[0.005,0.63,0],[0.1,0.2,0],[0.9,0.2,0],[0.5,0,0],[0.995,0.63,0],[0.72,0.99,0],[0.5,1,0],[0.28,0.99,0]];verticalLabelPosition=bottom;align=center;verticalAlign=top;shape=mxgraph.kubernetes.icon;prIcon=pod" vertex="1" parent="gVri99b_Ql9N_bP9wiT3-329">
          <mxGeometry x="111" y="76" width="50" height="48" as="geometry" />
        </mxCell>
        <mxCell id="gVri99b_Ql9N_bP9wiT3-334" value="" style="sketch=0;html=1;dashed=0;whitespace=wrap;fillColor=#2875E2;strokeColor=#ffffff;points=[[0.005,0.63,0],[0.1,0.2,0],[0.9,0.2,0],[0.5,0,0],[0.995,0.63,0],[0.72,0.99,0],[0.5,1,0],[0.28,0.99,0]];verticalLabelPosition=bottom;align=center;verticalAlign=top;shape=mxgraph.kubernetes.icon;prIcon=pod" vertex="1" parent="gVri99b_Ql9N_bP9wiT3-329">
          <mxGeometry x="235" y="76" width="50" height="48" as="geometry" />
        </mxCell>
        <mxCell id="gVri99b_Ql9N_bP9wiT3-335" value="" style="sketch=0;html=1;dashed=0;whitespace=wrap;fillColor=#2875E2;strokeColor=#ffffff;points=[[0.005,0.63,0],[0.1,0.2,0],[0.9,0.2,0],[0.5,0,0],[0.995,0.63,0],[0.72,0.99,0],[0.5,1,0],[0.28,0.99,0]];verticalLabelPosition=bottom;align=center;verticalAlign=top;shape=mxgraph.kubernetes.icon;prIcon=pod" vertex="1" parent="gVri99b_Ql9N_bP9wiT3-329">
          <mxGeometry x="235" y="20" width="50" height="48" as="geometry" />
        </mxCell>
        <mxCell id="gVri99b_Ql9N_bP9wiT3-336" value="cc backend services" style="sketch=0;html=1;dashed=0;whitespace=wrap;fillColor=#2875E2;strokeColor=#ffffff;points=[[0.005,0.63,0],[0.1,0.2,0],[0.9,0.2,0],[0.5,0,0],[0.995,0.63,0],[0.72,0.99,0],[0.5,1,0],[0.28,0.99,0]];verticalLabelPosition=bottom;align=center;verticalAlign=top;shape=mxgraph.kubernetes.icon;prIcon=pod" vertex="1" parent="gVri99b_Ql9N_bP9wiT3-329">
          <mxGeometry x="235" y="130" width="50" height="48" as="geometry" />
        </mxCell>
        <UserObject label="" lucidchartObjectId="AGREzNCWMy9Q" id="gVri99b_Ql9N_bP9wiT3-337">
          <mxCell style="html=1;jettySize=18;whiteSpace=wrap;fontSize=13;strokeColor=#0078d7;strokeWidth=1.3;rounded=1;arcSize=1.66;edgeStyle=orthogonalEdgeStyle;startArrow=block;startFill=1;;endArrow=none;;exitX=0.005;exitY=0.63;entryX=0.995;entryY=0.63;entryPerimeter=0;entryDx=0;entryDy=0;exitDx=0;exitDy=0;exitPerimeter=0;" edge="1" parent="gVri99b_Ql9N_bP9wiT3-329">
            <mxGeometry width="100" height="100" relative="1" as="geometry">
              <Array as="points">
                <mxPoint x="185" y="102" />
                <mxPoint x="185" y="102" />
              </Array>
              <mxPoint x="235.25" y="102.24000000000001" as="sourcePoint" />
              <mxPoint x="160.75" y="102.24000000000001" as="targetPoint" />
            </mxGeometry>
          </mxCell>
        </UserObject>
        <UserObject label="" lucidchartObjectId="AGREzNCWMy9Q" id="gVri99b_Ql9N_bP9wiT3-338">
          <mxCell style="html=1;jettySize=18;whiteSpace=wrap;fontSize=13;strokeColor=#0078d7;strokeWidth=1.3;rounded=1;arcSize=1.66;edgeStyle=orthogonalEdgeStyle;startArrow=block;startFill=1;;endArrow=none;;exitX=0.005;exitY=0.63;exitDx=0;exitDy=0;exitPerimeter=0;" edge="1" parent="gVri99b_Ql9N_bP9wiT3-329" source="gVri99b_Ql9N_bP9wiT3-336">
            <mxGeometry width="100" height="100" relative="1" as="geometry">
              <Array as="points" />
              <mxPoint x="245.25" y="112.24000000000001" as="sourcePoint" />
              <mxPoint x="195" y="100" as="targetPoint" />
            </mxGeometry>
          </mxCell>
        </UserObject>
        <mxCell id="gVri99b_Ql9N_bP9wiT3-339" value="Default Namespace" style="sketch=0;html=1;dashed=0;whitespace=wrap;fillColor=#2875E2;strokeColor=#ffffff;points=[[0.005,0.63,0],[0.1,0.2,0],[0.9,0.2,0],[0.5,0,0],[0.995,0.63,0],[0.72,0.99,0],[0.5,1,0],[0.28,0.99,0]];verticalLabelPosition=bottom;align=center;verticalAlign=top;shape=mxgraph.kubernetes.icon;prIcon=ns" vertex="1" parent="gVri99b_Ql9N_bP9wiT3-329">
          <mxGeometry x="29" y="3" width="50" height="48" as="geometry" />
        </mxCell>
        <mxCell id="gVri99b_Ql9N_bP9wiT3-344" value="" style="rounded=0;whiteSpace=wrap;html=1;fillColor=#d5e8d4;strokeColor=#82b366;" vertex="1" parent="1">
          <mxGeometry x="1000" y="-130" width="320" height="620" as="geometry" />
        </mxCell>
        <UserObject label="" lucidchartObjectId="AGREzNCWMy9Q" id="gVri99b_Ql9N_bP9wiT3-340">
          <mxCell style="html=1;jettySize=18;whiteSpace=wrap;fontSize=13;strokeColor=#0078d7;strokeWidth=1.3;rounded=1;arcSize=1.66;edgeStyle=orthogonalEdgeStyle;startArrow=block;startFill=1;;endArrow=none;;exitX=0.005;exitY=0.63;exitDx=0;exitDy=0;exitPerimeter=0;" edge="1" parent="1" source="gVri99b_Ql9N_bP9wiT3-335">
            <mxGeometry width="100" height="100" relative="1" as="geometry">
              <Array as="points" />
              <mxPoint x="345" y="470" as="sourcePoint" />
              <mxPoint x="295" y="400" as="targetPoint" />
            </mxGeometry>
          </mxCell>
        </UserObject>
        <UserObject label="" lucidchartObjectId="AGREzNCWMy9Q" id="gVri99b_Ql9N_bP9wiT3-341">
          <mxCell style="html=1;jettySize=18;whiteSpace=wrap;fontSize=13;strokeColor=#0078d7;strokeWidth=1.3;rounded=1;arcSize=1.66;edgeStyle=orthogonalEdgeStyle;startArrow=block;startFill=1;;endArrow=none;;exitX=0.005;exitY=0.63;exitDx=0;exitDy=0;exitPerimeter=0;" edge="1" parent="1" source="gVri99b_Ql9N_bP9wiT3-333" target="52">
            <mxGeometry width="100" height="100" relative="1" as="geometry">
              <Array as="points" />
              <mxPoint x="221" y="505" as="sourcePoint" />
              <mxPoint x="-240.65300000000025" y="658.6399999999999" as="targetPoint" />
            </mxGeometry>
          </mxCell>
        </UserObject>
        <mxCell id="gVri99b_Ql9N_bP9wiT3-342" value="http listener dev.dlcm.vwgroup.com" style="edgeLabel;html=1;align=center;verticalAlign=middle;resizable=0;points=[];" vertex="1" connectable="0" parent="gVri99b_Ql9N_bP9wiT3-341">
          <mxGeometry x="-0.2446" y="-4" relative="1" as="geometry">
            <mxPoint x="-149" y="-8" as="offset" />
          </mxGeometry>
        </mxCell>
        <mxCell id="gVri99b_Ql9N_bP9wiT3-295" value="Database Host" style="image;aspect=fixed;perimeter=ellipsePerimeter;html=1;align=center;shadow=0;dashed=0;spacingTop=3;image=img/lib/active_directory/database_server.svg;labelBackgroundColor=none;" vertex="1" parent="1">
          <mxGeometry x="1000" y="-130" width="109.88" height="134" as="geometry" />
        </mxCell>
        <UserObject label="Team Databases" lucidchartObjectId="AGREJ8UPPvZf" id="53">
          <mxCell style="html=1;overflow=block;blockSpacing=1;whiteSpace=wrap;aspect=fixed;html=1;points=[];align=center;verticalAlign=top;image;image=img/lib/mscae/Azure_Database_for_MySQL_servers.svg;whiteSpace=wrap;fontSize=13;spacing=0;strokeColor=#5e5e5e;strokeOpacity=100;rounded=1;absoluteArcSize=1;arcSize=9;fillColor=#0F80B0;strokeWidth=2.3;" parent="1" vertex="1">
            <mxGeometry x="1020.94" y="40" width="68" height="90" as="geometry" />
          </mxCell>
        </UserObject>
        <UserObject label="Team Databases" lucidchartObjectId="AGREJ8UPPvZf" id="gVri99b_Ql9N_bP9wiT3-345">
          <mxCell style="html=1;overflow=block;blockSpacing=1;whiteSpace=wrap;aspect=fixed;html=1;points=[];align=center;verticalAlign=top;image;image=img/lib/mscae/Azure_Database_for_MySQL_servers.svg;whiteSpace=wrap;fontSize=13;spacing=0;strokeColor=#5e5e5e;strokeOpacity=100;rounded=1;absoluteArcSize=1;arcSize=9;fillColor=#0F80B0;strokeWidth=2.3;" vertex="1" parent="1">
            <mxGeometry x="1098.94" y="40" width="68" height="90" as="geometry" />
          </mxCell>
        </UserObject>
        <UserObject label="Team Databases" lucidchartObjectId="AGREJ8UPPvZf" id="gVri99b_Ql9N_bP9wiT3-346">
          <mxCell style="html=1;overflow=block;blockSpacing=1;whiteSpace=wrap;aspect=fixed;html=1;points=[];align=center;verticalAlign=top;image;image=img/lib/mscae/Azure_Database_for_MySQL_servers.svg;whiteSpace=wrap;fontSize=13;spacing=0;strokeColor=#5e5e5e;strokeOpacity=100;rounded=1;absoluteArcSize=1;arcSize=9;fillColor=#0F80B0;strokeWidth=2.3;" vertex="1" parent="1">
            <mxGeometry x="1176.94" y="42" width="68" height="90" as="geometry" />
          </mxCell>
        </UserObject>
        <mxCell id="gVri99b_Ql9N_bP9wiT3-354" value="Keycloak" style="sketch=0;html=1;dashed=0;whitespace=wrap;fillColor=#2875E2;strokeColor=#ffffff;points=[[0.005,0.63,0],[0.1,0.2,0],[0.9,0.2,0],[0.5,0,0],[0.995,0.63,0],[0.72,0.99,0],[0.5,1,0],[0.28,0.99,0]];verticalLabelPosition=bottom;align=center;verticalAlign=top;shape=mxgraph.kubernetes.icon;prIcon=pod" vertex="1" parent="1">
          <mxGeometry x="470" y="376" width="50" height="48" as="geometry" />
        </mxCell>
        <mxCell id="gVri99b_Ql9N_bP9wiT3-355" value="Keycloak" style="sketch=0;html=1;dashed=0;whitespace=wrap;fillColor=#2875E2;strokeColor=#ffffff;points=[[0.005,0.63,0],[0.1,0.2,0],[0.9,0.2,0],[0.5,0,0],[0.995,0.63,0],[0.72,0.99,0],[0.5,1,0],[0.28,0.99,0]];verticalLabelPosition=bottom;align=center;verticalAlign=top;shape=mxgraph.kubernetes.icon;prIcon=pod" vertex="1" parent="1">
          <mxGeometry x="470" y="106" width="50" height="48" as="geometry" />
        </mxCell>
        <UserObject label="Dev Databases" lucidchartObjectId="AGREJ8UPPvZf" id="gVri99b_Ql9N_bP9wiT3-357">
          <mxCell style="html=1;overflow=block;blockSpacing=1;whiteSpace=wrap;aspect=fixed;html=1;points=[];align=center;verticalAlign=top;image;image=img/lib/mscae/Azure_Database_for_MySQL_servers.svg;whiteSpace=wrap;fontSize=13;spacing=0;strokeColor=#5e5e5e;strokeOpacity=100;rounded=1;absoluteArcSize=1;arcSize=9;fillColor=#0F80B0;strokeWidth=2.3;" vertex="1" parent="1">
            <mxGeometry x="1028.94" y="357" width="68" height="90" as="geometry" />
          </mxCell>
        </UserObject>
        <UserObject label="Dev Databases" lucidchartObjectId="AGREJ8UPPvZf" id="gVri99b_Ql9N_bP9wiT3-358">
          <mxCell style="html=1;overflow=block;blockSpacing=1;whiteSpace=wrap;aspect=fixed;html=1;points=[];align=center;verticalAlign=top;image;image=img/lib/mscae/Azure_Database_for_MySQL_servers.svg;whiteSpace=wrap;fontSize=13;spacing=0;strokeColor=#5e5e5e;strokeOpacity=100;rounded=1;absoluteArcSize=1;arcSize=9;fillColor=#0F80B0;strokeWidth=2.3;" vertex="1" parent="1">
            <mxGeometry x="1106.94" y="357" width="68" height="90" as="geometry" />
          </mxCell>
        </UserObject>
        <UserObject label="Dev Databases" lucidchartObjectId="AGREJ8UPPvZf" id="gVri99b_Ql9N_bP9wiT3-359">
          <mxCell style="html=1;overflow=block;blockSpacing=1;whiteSpace=wrap;aspect=fixed;html=1;points=[];align=center;verticalAlign=top;image;image=img/lib/mscae/Azure_Database_for_MySQL_servers.svg;whiteSpace=wrap;fontSize=13;spacing=0;strokeColor=#5e5e5e;strokeOpacity=100;rounded=1;absoluteArcSize=1;arcSize=9;fillColor=#0F80B0;strokeWidth=2.3;" vertex="1" parent="1">
            <mxGeometry x="1184.94" y="357" width="68" height="90" as="geometry" />
          </mxCell>
        </UserObject>
        <UserObject label="" lucidchartObjectId="AGREzNCWMy9Q" id="gVri99b_Ql9N_bP9wiT3-364">
          <mxCell style="html=1;jettySize=18;whiteSpace=wrap;fontSize=13;strokeColor=#0078d7;strokeWidth=1.3;rounded=1;arcSize=1.66;edgeStyle=orthogonalEdgeStyle;startArrow=block;startFill=1;;endArrow=none;;exitX=0.717;exitY=0.271;entryX=0.995;entryY=0.63;entryPerimeter=0;entryDx=0;entryDy=0;exitDx=0;exitDy=0;exitPerimeter=0;" edge="1" parent="1" source="2">
            <mxGeometry width="100" height="100" relative="1" as="geometry">
              <Array as="points">
                <mxPoint x="810" y="102" />
                <mxPoint x="810" y="102" />
              </Array>
              <mxPoint x="705.25" y="102.24000000000001" as="sourcePoint" />
              <mxPoint x="630.75" y="102.24000000000001" as="targetPoint" />
            </mxGeometry>
          </mxCell>
        </UserObject>
        <UserObject label="" lucidchartObjectId="AGREzNCWMy9Q" id="gVri99b_Ql9N_bP9wiT3-365">
          <mxCell style="html=1;jettySize=18;whiteSpace=wrap;fontSize=13;strokeColor=#0078d7;strokeWidth=1.3;rounded=1;arcSize=1.66;edgeStyle=orthogonalEdgeStyle;startArrow=block;startFill=1;;endArrow=none;;exitX=0.717;exitY=0.271;entryX=0.995;entryY=0.63;entryPerimeter=0;entryDx=0;entryDy=0;exitDx=0;exitDy=0;exitPerimeter=0;" edge="1" parent="1">
            <mxGeometry width="100" height="100" relative="1" as="geometry">
              <Array as="points">
                <mxPoint x="810" y="412" />
                <mxPoint x="810" y="412" />
              </Array>
              <mxPoint x="989" y="412" as="sourcePoint" />
              <mxPoint x="630.75" y="412.24" as="targetPoint" />
            </mxGeometry>
          </mxCell>
        </UserObject>
        <mxCell id="gVri99b_Ql9N_bP9wiT3-366" value="" style="rounded=0;whiteSpace=wrap;html=1;" vertex="1" parent="1">
          <mxGeometry x="670" y="202" width="230" height="198" as="geometry" />
        </mxCell>
        <mxCell id="gVri99b_Ql9N_bP9wiT3-368" value="Superset" style="sketch=0;html=1;dashed=0;whitespace=wrap;fillColor=#2875E2;strokeColor=#ffffff;points=[[0.005,0.63,0],[0.1,0.2,0],[0.9,0.2,0],[0.5,0,0],[0.995,0.63,0],[0.72,0.99,0],[0.5,1,0],[0.28,0.99,0]];verticalLabelPosition=bottom;align=center;verticalAlign=top;shape=mxgraph.kubernetes.icon;prIcon=pod" vertex="1" parent="1">
          <mxGeometry x="700" y="282" width="50" height="48" as="geometry" />
        </mxCell>
        <mxCell id="gVri99b_Ql9N_bP9wiT3-369" value="Data query" style="sketch=0;html=1;dashed=0;whitespace=wrap;fillColor=#2875E2;strokeColor=#ffffff;points=[[0.005,0.63,0],[0.1,0.2,0],[0.9,0.2,0],[0.5,0,0],[0.995,0.63,0],[0.72,0.99,0],[0.5,1,0],[0.28,0.99,0]];verticalLabelPosition=bottom;align=center;verticalAlign=top;shape=mxgraph.kubernetes.icon;prIcon=pod" vertex="1" parent="1">
          <mxGeometry x="780" y="282" width="50" height="48" as="geometry" />
        </mxCell>
        <mxCell id="gVri99b_Ql9N_bP9wiT3-370" value="Shared" style="text;html=1;strokeColor=none;fillColor=none;align=center;verticalAlign=middle;whiteSpace=wrap;rounded=0;" vertex="1" parent="1">
          <mxGeometry x="740" y="212" width="60" height="30" as="geometry" />
        </mxCell>
        <UserObject label="" lucidchartObjectId="AGREzNCWMy9Q" id="gVri99b_Ql9N_bP9wiT3-371">
          <mxCell style="html=1;jettySize=18;whiteSpace=wrap;fontSize=13;strokeColor=#0078d7;strokeWidth=1.3;rounded=1;arcSize=1.66;edgeStyle=orthogonalEdgeStyle;startArrow=block;startFill=1;;endArrow=none;;exitX=0.005;exitY=0.63;entryX=0.995;entryY=0.63;entryPerimeter=0;entryDx=0;entryDy=0;exitDx=0;exitDy=0;exitPerimeter=0;" edge="1" parent="1">
            <mxGeometry width="100" height="100" relative="1" as="geometry">
              <Array as="points">
                <mxPoint x="654" y="222" />
                <mxPoint x="654" y="222" />
              </Array>
              <mxPoint x="704.25" y="222.24" as="sourcePoint" />
              <mxPoint x="629.75" y="222.24" as="targetPoint" />
            </mxGeometry>
          </mxCell>
        </UserObject>
        <UserObject label="" lucidchartObjectId="AGREzNCWMy9Q" id="gVri99b_Ql9N_bP9wiT3-372">
          <mxCell style="html=1;jettySize=18;whiteSpace=wrap;fontSize=13;strokeColor=#0078d7;strokeWidth=1.3;rounded=1;arcSize=1.66;edgeStyle=orthogonalEdgeStyle;startArrow=block;startFill=1;;endArrow=none;;exitX=0.005;exitY=0.63;entryX=0.995;entryY=0.63;entryPerimeter=0;entryDx=0;entryDy=0;exitDx=0;exitDy=0;exitPerimeter=0;" edge="1" parent="1">
            <mxGeometry width="100" height="100" relative="1" as="geometry">
              <Array as="points">
                <mxPoint x="654" y="332" />
                <mxPoint x="654" y="332" />
              </Array>
              <mxPoint x="704.25" y="332.24" as="sourcePoint" />
              <mxPoint x="629.75" y="332.24" as="targetPoint" />
            </mxGeometry>
          </mxCell>
        </UserObject>
        <UserObject label="" lucidchartObjectId="AGREzNCWMy9Q" id="gVri99b_Ql9N_bP9wiT3-373">
          <mxCell style="html=1;jettySize=18;whiteSpace=wrap;fontSize=13;strokeColor=#0078d7;strokeWidth=1.3;rounded=1;arcSize=1.66;edgeStyle=orthogonalEdgeStyle;startArrow=block;startFill=1;;endArrow=none;;exitX=0.717;exitY=0.541;entryX=0.995;entryY=0.63;entryPerimeter=0;entryDx=0;entryDy=0;exitDx=0;exitDy=0;exitPerimeter=0;" edge="1" parent="1" source="2">
            <mxGeometry width="100" height="100" relative="1" as="geometry">
              <Array as="points">
                <mxPoint x="940" y="381" />
                <mxPoint x="940" y="381" />
              </Array>
              <mxPoint x="974.25" y="381.24" as="sourcePoint" />
              <mxPoint x="899.75" y="381.24" as="targetPoint" />
            </mxGeometry>
          </mxCell>
        </UserObject>
      </root>
    </mxGraphModel>
  </diagram>
</mxfile>
